<?xml version="1.0" encoding="UTF-8"?>
<svg xmlns="http://www.w3.org/2000/svg" xmlns:xlink="http://www.w3.org/1999/xlink" xmlns:svg="http://www.w3.org/2000/svg" xmlns:sodipodi="http://sodipodi.sourceforge.net/DTD/sodipodi-0.dtd" xmlns:inkscape="http://www.inkscape.org/namespaces/inkscape" version="1.1" viewBox="0 0 877 140">
  <defs>
    <style>
      .cls-1, .cls-2, .cls-3, .cls-4 {
        fill: none;
      }

      .cls-5 {
        clip-path: url(#clippath-17);
      }

      .cls-6 {
        clip-path: url(#clippath-11);
      }

      .cls-7 {
        clip-path: url(#clippath-16);
      }

      .cls-8 {
        clip-path: url(#clippath-10);
      }

      .cls-9 {
        clip-path: url(#clippath-15);
      }

      .cls-10 {
        clip-path: url(#clippath-13);
      }

      .cls-11 {
        clip-path: url(#clippath-14);
      }

      .cls-12 {
        clip-path: url(#clippath-12);
      }

      .cls-13 {
        clip-path: url(#clippath-1);
      }

      .cls-14 {
        clip-path: url(#clippath-3);
      }

      .cls-15 {
        clip-path: url(#clippath-4);
      }

      .cls-16 {
        clip-path: url(#clippath-2);
      }

      .cls-17 {
        clip-path: url(#clippath-7);
      }

      .cls-18 {
        clip-path: url(#clippath-6);
      }

      .cls-19 {
        clip-path: url(#clippath-9);
      }

      .cls-20 {
        clip-path: url(#clippath-8);
      }

      .cls-21 {
        clip-path: url(#clippath-5);
      }

      .cls-22 {
        fill: #141414;
      }

      .cls-23 {
        fill: #fff;
      }

      .cls-2 {
        stroke: #85888d;
      }

      .cls-2, .cls-4 {
        stroke-width: 4px;
      }

      .cls-3 {
        stroke-width: 3px;
      }

      .cls-3, .cls-4 {
        stroke: #000;
      }

      .cls-24 {
        clip-path: url(#clippath);
      }

      .cls-25 {
        font-family: OpenSans-Medium, 'Open Sans';
        font-size: 117.4px;
        font-weight: 500;
      }
    </style>
    <clipPath id="clippath">
      <rect class="cls-1" x="67" y="107" width="34.3" height="11" transform="translate(-50.4 153.1) rotate(-70)"/>
    </clipPath>
    <clipPath id="clippath-1">
      <rect class="cls-1" x="84.1" y="93.1" width="10.3" height="11" transform="translate(-33.9 148.7) rotate(-70)"/>
    </clipPath>
    <clipPath id="clippath-2">
      <rect class="cls-1" x="74.1" y="115.8" width="11.3" height="17.8" transform="translate(-64.7 156.9) rotate(-70)"/>
    </clipPath>
    <clipPath id="clippath-3">
      <rect class="cls-1" x="68.2" y="110.1" width="31.6" height="4.5" transform="translate(-50.3 152.8) rotate(-70)"/>
    </clipPath>
    <clipPath id="clippath-4">
      <rect class="cls-1" x="83" y="86.6" width="17.8" height="5" transform="translate(-23.2 145) rotate(-70)"/>
    </clipPath>
    <clipPath id="clippath-5">
      <rect class="cls-1" x="86.6" y="90.6" width="9.9" height="5" transform="translate(-27.3 147.3) rotate(-70)"/>
    </clipPath>
    <clipPath id="clippath-6">
      <rect class="cls-1" x="65.3" y="12.7" width="59.3" height="54.2"/>
    </clipPath>
    <clipPath id="clippath-7">
      <rect class="cls-1" x="55.9" y="37.1" width="78.9" height="43.4"/>
    </clipPath>
    <clipPath id="clippath-8">
      <rect class="cls-1" x="92.4" y="38.7" width="6" height="40.2"/>
    </clipPath>
    <clipPath id="clippath-9">
      <rect class="cls-1" x="77.9" y="21.4" width="7.8" height="11.2"/>
    </clipPath>
    <clipPath id="clippath-10">
      <rect class="cls-1" x="91.5" y="21.4" width="7.8" height="11.2"/>
    </clipPath>
    <clipPath id="clippath-11">
      <rect class="cls-1" x="104.2" y="21.4" width="7.8" height="11.2"/>
    </clipPath>
    <clipPath id="clippath-12">
      <rect class="cls-1" x="86.1" y="4.2" width="17.5" height="6"/>
    </clipPath>
    <clipPath id="clippath-13">
      <rect class="cls-1" x="92.4" y="4.8" width="6" height="11.7"/>
    </clipPath>
    <clipPath id="clippath-14">
      <rect class="cls-1" x="52.9" y="11.4" width="6" height="38.6" transform="translate(-5.3 48.5) rotate(-45)"/>
    </clipPath>
    <clipPath id="clippath-15">
      <rect class="cls-1" x="47.8" y="20.6" width="22.1" height="6"/>
    </clipPath>
    <clipPath id="clippath-16">
      <rect class="cls-1" x="46.2" y="21.9" width="6" height="31.3"/>
    </clipPath>
    <clipPath id="clippath-17">
      <rect class="cls-1" x="38.8" y="51.2" width="20.1" height="15.9"/>
    </clipPath>
  </defs>
  <!-- Generator: Adobe Illustrator 28.7.0, SVG Export Plug-In . SVG Version: 1.2.0 Build 136)  -->
  <g>
    <g id="Layer_1">
      <path class="cls-2" d="M93.2,69.4c30.6-7,70.1-5.2,96.2,5.5,31.4,12.9,31.4,33.9,0,46.8s-82.4,12.9-113.8,0c-26.7-11-30.7-27.7-12.1-40.5"/>
      <g>
        <g class="cls-24">
          <rect class="cls-23" x="70" y="110" width="28.3" height="5" transform="translate(-50.4 153.1) rotate(-70)"/>
          <rect class="cls-4" x="70" y="110" width="28.3" height="5" transform="translate(-50.4 153.1) rotate(-70)"/>
        </g>
        <g class="cls-13">
          <path class="cls-23" d="M91.4,97.8c.6,1.1.2,2.4-1,2.8-1.2.4-2.7,0-3.3-1.2-.6-1.1-.2-2.4,1-2.8,1.2-.4,2.7,0,3.3,1.2"/>
          <path class="cls-4" d="M91.4,97.8c.6,1.1.2,2.4-1,2.8-1.2.4-2.7,0-3.3-1.2-.6-1.1-.2-2.4,1-2.8,1.2-.4,2.7,0,3.3,1.2Z"/>
        </g>
        <g class="cls-16">
          <polygon class="cls-23" points="80.2 123.2 82.1 128.4 75.5 125.9 80.2 123.2"/>
          <polygon class="cls-4" points="80.2 123.2 82.1 128.4 75.5 125.9 80.2 123.2"/>
        </g>
        <g class="cls-14">
          <rect class="cls-23" x="69.2" y="111.1" width="29.6" height="2.5" transform="translate(-50.3 152.9) rotate(-70)"/>
        </g>
        <g class="cls-15">
          <line class="cls-3" x1="89.2" y1="96.5" x2="94.6" y2="81.6"/>
        </g>
        <g class="cls-21">
          <line class="cls-3" x1="90.2" y1="96.9" x2="92.9" y2="89.4"/>
        </g>
      </g>
      <sodipodi:namedview id="namedview1" bordercolor="#000000" borderopacity="0.25" inkscape:current-layer="g2" inkscape:cx="241.95694" inkscape:cy="93.531044" inkscape:deskcolor="#d1d1d1" inkscape:document-units="mm" inkscape:export-bgcolor="#ffffffff" inkscape:pagecheckerboard="false" inkscape:pageopacity="0.0" inkscape:showpageshadow="2" inkscape:window-height="1212" inkscape:window-maximized="0" inkscape:window-width="1392" inkscape:window-x="139" inkscape:window-y="25" inkscape:zoom="2.860013" labelstyle="default" pagecolor="#ffffff"/>
      <rect class="cls-1" x="-707.6" y="-692.7" width="2182.7" height="1637"/>
      <path class="cls-2" d="M203.5,17.7c5.2,1.6,10.3,3.3,15,5.2,47.5,19.5,47.5,51.2,0,70.7-47.5,19.5-124.5,19.5-172,0S-1,42.5,46.5,22.9c33.5-13.8,81.8-17.8,124-12.2"/>
      <path class="cls-2" d="M145.5,38.5c20.5,1.1,40.3,4.9,56,11.4,38.1,15.7,38.1,41.1,0,56.8s-100,15.7-138.1,0c-38.1-15.7-38.1-41.1,0-56.8,14-5.7,31.1-9.4,49.2-10.9"/>
      <path class="cls-22" d="M98.2,65.5c2.6,2.6,2.6,6.9,0,9.5s-6.9,2.6-9.5,0-2.6-6.9,0-9.5,6.9-2.6,9.5,0"/>
      <path class="cls-22" d="M150.2,34.5c2.6,2.6,2.6,6.9,0,9.5s-6.9,2.6-9.5,0-2.6-6.9,0-9.5c2.6-2.6,6.9-2.6,9.5,0"/>
      <path class="cls-22" d="M208.2,12.3c2.6,2.6,2.6,6.9,0,9.5-2.6,2.6-6.9,2.6-9.5,0s-2.6-6.9,0-9.5,6.9-2.6,9.5,0"/>
      <text class="cls-25" transform="translate(270.1 108.1)"><tspan x="0" y="0">VirtualShip</tspan></text>
      <g class="cls-18">
        <path class="cls-23" d="M80.5,15.7h28.8c3.6,0,5.7,0,7.2.6,2.1.8,3.7,2.4,4.4,4.4.6,1.4.6,3.6.6,7.2v23.7c0,3.6,0,5.7-.6,7.2-.8,2.1-2.4,3.7-4.4,4.4-1.4.6-3.6.6-7.2.6h-28.8c-3.6,0-5.7,0-7.2-.6-2.1-.8-3.7-2.4-4.4-4.4-.6-1.4-.6-3.6-.6-7.2v-23.7c0-3.6,0-5.7.6-7.2.8-2.1,2.4-3.7,4.4-4.4,1.4-.6,3.6-.6,7.2-.6"/>
        <path class="cls-4" d="M80.5,15.7h28.8c3.6,0,5.7,0,7.2.6,2.1.8,3.7,2.4,4.4,4.4.6,1.4.6,3.6.6,7.2v23.7c0,3.6,0,5.7-.6,7.2-.8,2.1-2.4,3.7-4.4,4.4-1.4.6-3.6.6-7.2.6h-28.8c-3.6,0-5.7,0-7.2-.6-2.1-.8-3.7-2.4-4.4-4.4-.6-1.4-.6-3.6-.6-7.2v-23.7c0-3.6,0-5.7.6-7.2.8-2.1,2.4-3.7,4.4-4.4,1.4-.6,3.6-.6,7.2-.6Z"/>
      </g>
      <g class="cls-17">
        <polygon class="cls-23" points="66.8 76.7 59.3 50 95.7 40.2 131.3 50.1 124.5 77.5 66.8 76.7"/>
        <polygon class="cls-4" points="66.8 76.7 59.3 50 95.7 40.2 131.3 50.1 124.5 77.5 66.8 76.7"/>
      </g>
      <g class="cls-20">
        <line class="cls-4" x1="95.4" y1="77.9" x2="95.4" y2="39.7"/>
      </g>
      <g class="cls-19">
        <rect x="78.9" y="22.4" width="5.8" height="9.2"/>
      </g>
      <g class="cls-8">
        <rect x="92.5" y="22.4" width="5.8" height="9.2"/>
      </g>
      <g class="cls-6">
        <rect x="105.2" y="22.4" width="5.8" height="9.2"/>
      </g>
      <g class="cls-12">
        <line class="cls-4" x1="102.7" y1="7.2" x2="87.1" y2="7.2"/>
      </g>
      <g class="cls-10">
        <line class="cls-4" x1="95.4" y1="15.5" x2="95.4" y2="5.8"/>
      </g>
      <g class="cls-11">
        <line class="cls-4" x1="68.9" y1="43.7" x2="43" y2="17.7"/>
      </g>
      <g class="cls-9">
        <line class="cls-4" x1="68.9" y1="23.6" x2="48.8" y2="23.6"/>
      </g>
      <g class="cls-7">
        <line class="cls-4" x1="49.2" y1="52.2" x2="49.2" y2="22.9"/>
      </g>
      <g class="cls-5">
        <path class="cls-23" d="M48.8,54.2c1.6,0,3.1,0,3.8.3,1.4.5,2.5,1.6,3,3,.2.5.3,1.1.3,1.7s-.1,1.1-.3,1.7c-.5,1.4-1.6,2.5-3,3-.7.3-2.2.3-3.8.3s-3.1,0-3.8-.3c-1.4-.5-2.5-1.6-3-3-.2-.5-.3-1.1-.3-1.7s.1-1.2.3-1.7c.5-1.4,1.6-2.5,3-3,.7-.3,2.2-.3,3.8-.3"/>
        <path class="cls-4" d="M48.8,54.2c1.6,0,3.1,0,3.8.3,1.4.5,2.5,1.6,3,3,.2.5.3,1.1.3,1.7s-.1,1.1-.3,1.7c-.5,1.4-1.6,2.5-3,3-.7.3-2.2.3-3.8.3s-3.1,0-3.8-.3c-1.4-.5-2.5-1.6-3-3-.2-.5-.3-1.1-.3-1.7s.1-1.2.3-1.7c.5-1.4,1.6-2.5,3-3,.7-.3,2.2-.3,3.8-.3Z"/>
      </g>
    </g>
  </g>
</svg>
