<?xml version="1.0" encoding="UTF-8"?>
<svg xmlns="http://www.w3.org/2000/svg" xmlns:xlink="http://www.w3.org/1999/xlink" xmlns:svg="http://www.w3.org/2000/svg" xmlns:sodipodi="http://sodipodi.sourceforge.net/DTD/sodipodi-0.dtd" xmlns:inkscape="http://www.inkscape.org/namespaces/inkscape" version="1.1" viewBox="0 0 877 140">
  <defs>
    <style>
      .cls-1, .cls-2, .cls-3, .cls-4, .cls-5, .cls-6, .cls-7 {
        fill: none;
      }

      .cls-8 {
        fill: #ebebeb;
      }

      .cls-9 {
        font-family: OpenSans-Medium, 'Open Sans';
        font-size: 117.4px;
        font-weight: 500;
      }

      .cls-9, .cls-10 {
        isolation: isolate;
      }

      .cls-9, .cls-11 {
        fill: #fff;
      }

      .cls-2 {
        stroke: #7a7772;
      }

      .cls-2, .cls-3 {
        stroke-width: 4px;
      }

      .cls-12 {
        clip-path: url(#clippath-17);
      }

      .cls-13 {
        clip-path: url(#clippath-19);
      }

      .cls-14 {
        clip-path: url(#clippath-11);
      }

      .cls-15 {
        clip-path: url(#clippath-16);
      }

      .cls-16 {
        clip-path: url(#clippath-18);
      }

      .cls-17 {
        clip-path: url(#clippath-10);
      }

      .cls-18 {
        clip-path: url(#clippath-15);
      }

      .cls-19 {
        clip-path: url(#clippath-13);
      }

      .cls-20 {
        clip-path: url(#clippath-14);
      }

      .cls-21 {
        clip-path: url(#clippath-12);
      }

      .cls-22 {
        clip-path: url(#clippath-20);
      }

      .cls-23 {
        clip-path: url(#clippath-21);
      }

      .cls-24 {
        clip-path: url(#clippath-22);
      }

      .cls-25 {
        clip-path: url(#clippath-23);
      }

      .cls-26 {
        clip-path: url(#clippath-1);
      }

      .cls-27 {
        clip-path: url(#clippath-3);
      }

      .cls-28 {
        clip-path: url(#clippath-4);
      }

      .cls-29 {
        clip-path: url(#clippath-2);
      }

      .cls-30 {
        clip-path: url(#clippath-7);
      }

      .cls-31 {
        clip-path: url(#clippath-6);
      }

      .cls-32 {
        clip-path: url(#clippath-9);
      }

      .cls-33 {
        clip-path: url(#clippath-8);
      }

      .cls-34 {
        clip-path: url(#clippath-5);
      }

      .cls-3, .cls-4, .cls-5, .cls-7 {
        stroke: #fff;
      }

      .cls-4 {
        stroke-width: 4px;
      }

      .cls-5 {
        stroke-width: 3px;
      }

      .cls-6 {
        stroke: #85888d;
        stroke-width: 2px;
      }

      .cls-35 {
        clip-path: url(#clippath);
      }
    </style>
    <clipPath id="clippath">
      <rect class="cls-1" x="67.2" y="107.5" width="34.3" height="11" transform="translate(-50.7 153.6) rotate(-70)"/>
    </clipPath>
    <clipPath id="clippath-1">
      <rect class="cls-1" x="-385.6" y="-185.5" width="1024" height="768"/>
    </clipPath>
    <clipPath id="clippath-2">
      <rect class="cls-1" x="84.3" y="93.5" width="10.3" height="11" transform="translate(-34.2 149.2) rotate(-70)"/>
    </clipPath>
    <clipPath id="clippath-3">
      <rect class="cls-1" x="-385.6" y="-185.5" width="1024" height="768"/>
    </clipPath>
    <clipPath id="clippath-4">
      <rect class="cls-1" x="74.3" y="116.2" width="11.3" height="17.8" transform="translate(-65 157.4) rotate(-70)"/>
    </clipPath>
    <clipPath id="clippath-5">
      <rect class="cls-1" x="-385.6" y="-185.5" width="1024" height="768"/>
    </clipPath>
    <clipPath id="clippath-6">
      <rect class="cls-1" x="-385.6" y="-185.5" width="1024" height="768"/>
    </clipPath>
    <clipPath id="clippath-7">
      <rect class="cls-1" x="83.2" y="87" width="17.8" height="5" transform="translate(-23.5 145.4) rotate(-70)"/>
    </clipPath>
    <clipPath id="clippath-8">
      <rect class="cls-1" x="-385.6" y="-185.5" width="1024" height="768"/>
    </clipPath>
    <clipPath id="clippath-9">
      <rect class="cls-1" x="86.8" y="91.1" width="9.9" height="5" transform="translate(-27.6 147.8) rotate(-70)"/>
    </clipPath>
    <clipPath id="clippath-10">
      <rect class="cls-1" x="-385.6" y="-185.5" width="1024" height="768"/>
    </clipPath>
    <clipPath id="clippath-11">
      <rect class="cls-1" x="65.3" y="11.6" width="59.3" height="54.2"/>
    </clipPath>
    <clipPath id="clippath-12">
      <rect class="cls-1" x="55.9" y="36.1" width="78.9" height="43.4"/>
    </clipPath>
    <clipPath id="clippath-13">
      <rect class="cls-1" x="92.4" y="37.7" width="6" height="40.2"/>
    </clipPath>
    <clipPath id="clippath-14">
      <rect class="cls-1" x="77.8" y="20.4" width="7.8" height="11.2"/>
    </clipPath>
    <clipPath id="clippath-15">
      <rect class="cls-1" x="91.5" y="20.4" width="7.8" height="11.2"/>
    </clipPath>
    <clipPath id="clippath-16">
      <rect class="cls-1" x="104.2" y="20.4" width="7.8" height="11.2"/>
    </clipPath>
    <clipPath id="clippath-17">
      <rect class="cls-1" x="86.1" y="3.1" width="17.5" height="6"/>
    </clipPath>
    <clipPath id="clippath-18">
      <rect class="cls-1" x="92.4" y="3.7" width="6" height="11.7"/>
    </clipPath>
    <clipPath id="clippath-19">
      <rect class="cls-1" x="52.9" y="10.3" width="6" height="38.6" transform="translate(-4.6 48.2) rotate(-45)"/>
    </clipPath>
    <clipPath id="clippath-20">
      <rect class="cls-1" x="-385.8" y="-186.9" width="1024" height="768"/>
    </clipPath>
    <clipPath id="clippath-21">
      <rect class="cls-1" x="47.7" y="19.6" width="22.1" height="6"/>
    </clipPath>
    <clipPath id="clippath-22">
      <rect class="cls-1" x="46.1" y="20.8" width="6" height="31.3"/>
    </clipPath>
    <clipPath id="clippath-23">
      <rect class="cls-1" x="38.7" y="50.1" width="20.1" height="15.9"/>
    </clipPath>
  </defs>
  <!-- Generator: Adobe Illustrator 28.7.0, SVG Export Plug-In . SVG Version: 1.2.0 Build 136)  -->
  <g>
    <g id="Layer_1">
      <path class="cls-2" d="M89.2,69.9c30.6-7,70.1-5.2,96.2,5.5,31.4,12.9,31.4,33.9,0,46.8s-82.4,12.9-113.8,0c-26.7-11-30.7-27.7-12.1-40.5"/>
      <path class="cls-6" d="M57.5,119.9"/>
      <g class="cls-35">
        <g class="cls-26">
          <rect class="cls-11" x="70.2" y="110.5" width="28.3" height="5" transform="translate(-50.7 153.6) rotate(-70)"/>
          <rect class="cls-4" x="70.2" y="110.5" width="28.3" height="5" transform="translate(-50.7 153.6) rotate(-70)"/>
        </g>
      </g>
      <g class="cls-29">
        <g class="cls-27">
          <path class="cls-11" d="M91.6,98.2c.6,1.1.2,2.4-1,2.8-1.2.4-2.7,0-3.3-1.2-.6-1.1-.2-2.4,1-2.8,1.2-.4,2.7,0,3.3,1.2Z"/>
          <path class="cls-4" d="M91.6,98.2c.6,1.1.2,2.4-1,2.8s-2.7,0-3.3-1.2-.2-2.4,1-2.8,2.7,0,3.3,1.2Z"/>
        </g>
      </g>
      <g class="cls-28">
        <g class="cls-34">
          <polygon class="cls-11" points="80.4 123.7 82.3 128.8 75.7 126.4 80.4 123.7"/>
          <polygon class="cls-4" points="80.4 123.7 82.3 128.8 75.7 126.4 80.4 123.7"/>
        </g>
      </g>
      <g class="cls-31">
        <rect x="69.4" y="111.6" width="29.6" height="2.5" transform="translate(-50.6 153.3) rotate(-70)"/>
      </g>
      <rect class="cls-1" x="68.4" y="110.6" width="31.6" height="4.5" transform="translate(-50.6 153.3) rotate(-70)"/>
      <g class="cls-30">
        <g class="cls-33">
          <line class="cls-5" x1="89.4" y1="97" x2="94.8" y2="82.1"/>
        </g>
      </g>
      <g class="cls-32">
        <g class="cls-17">
          <line class="cls-5" x1="90.4" y1="97.3" x2="93.1" y2="89.9"/>
        </g>
      </g>
      <sodipodi:namedview id="namedview1" bordercolor="#000000" borderopacity="0.25" inkscape:current-layer="g2" inkscape:cx="241.95694" inkscape:cy="93.531044" inkscape:deskcolor="#d1d1d1" inkscape:document-units="mm" inkscape:export-bgcolor="#ffffffff" inkscape:pagecheckerboard="false" inkscape:pageopacity="0.0" inkscape:showpageshadow="2" inkscape:window-height="1212" inkscape:window-maximized="0" inkscape:window-width="1392" inkscape:window-x="139" inkscape:window-y="25" inkscape:zoom="2.860013" labelstyle="default" pagecolor="#ffffff"/>
      <rect class="cls-1" x="-707.6" y="-692.7" width="2182.7" height="1637"/>
      <g class="cls-10">
        <text class="cls-9" transform="translate(270.1 108.1)"><tspan x="0" y="0">VirtualShip</tspan></text>
      </g>
      <path class="cls-2" d="M199.5,18.2c5.2,1.6,10.3,3.3,15,5.2,47.5,19.5,47.5,51.2,0,70.7-47.5,19.5-124.5,19.5-172,0s-47.5-51.1,0-70.7c33.5-13.8,81.8-17.8,124-12.2"/>
      <path class="cls-2" d="M141.5,39c20.5,1.1,40.3,4.9,56,11.4,38.1,15.7,38.1,41.1,0,56.8s-100,15.7-138.1,0c-38.1-15.7-38.1-41.1,0-56.8,14-5.7,31.1-9.4,49.2-10.9"/>
      <path class="cls-8" d="M94.2,66c2.6,2.6,2.6,6.9,0,9.5s-6.9,2.6-9.5,0-2.6-6.9,0-9.5,6.9-2.6,9.5,0"/>
      <path class="cls-8" d="M146.2,35c2.6,2.6,2.6,6.9,0,9.5s-6.9,2.6-9.5,0-2.6-6.9,0-9.5c2.6-2.6,6.9-2.6,9.5,0"/>
      <path class="cls-8" d="M204.2,12.8c2.6,2.6,2.6,6.9,0,9.5-2.6,2.6-6.9,2.6-9.5,0s-2.6-6.9,0-9.5,6.9-2.6,9.5,0"/>
      <path class="cls-6" d="M472.4-243.5"/>
      <rect class="cls-1" x="-110.6" y="-484.7" width="1024" height="768"/>
      <g>
        <g class="cls-14">
          <path class="cls-11" d="M80.5,14.6h28.8c3.6,0,5.7,0,7.2.6,2.1.8,3.7,2.4,4.4,4.4.6,1.4.6,3.6.6,7.2v23.7c0,3.6,0,5.7-.6,7.2-.8,2.1-2.4,3.7-4.4,4.4-1.4.6-3.6.6-7.2.6h-28.8c-3.6,0-5.7,0-7.2-.6-2.1-.8-3.7-2.4-4.4-4.4-.6-1.4-.6-3.6-.6-7.2v-23.7c0-3.6,0-5.7.6-7.2.8-2.1,2.4-3.7,4.4-4.4,1.4-.6,3.6-.6,7.2-.6Z"/>
          <path class="cls-7" d="M80.5,14.6h28.8c3.6,0,5.7,0,7.2.6,2.1.8,3.7,2.4,4.4,4.4.6,1.4.6,3.6.6,7.2v23.7c0,3.6,0,5.7-.6,7.2-.8,2.1-2.4,3.7-4.4,4.4-1.4.6-3.6.6-7.2.6h-28.8c-3.6,0-5.7,0-7.2-.6-2.1-.8-3.7-2.4-4.4-4.4-.6-1.4-.6-3.6-.6-7.2v-23.7c0-3.6,0-5.7.6-7.2.8-2.1,2.4-3.7,4.4-4.4,1.4-.6,3.6-.6,7.2-.6Z"/>
        </g>
        <g class="cls-21">
          <polygon points="66.8 75.6 59.3 49 95.7 39.1 131.3 49.1 124.5 76.4 66.8 75.6"/>
          <polygon class="cls-3" points="66.8 75.6 59.3 49 95.7 39.1 131.3 49.1 124.5 76.4 66.8 75.6"/>
        </g>
        <g class="cls-19">
          <line class="cls-3" x1="95.4" y1="76.9" x2="95.4" y2="38.7"/>
        </g>
        <g class="cls-20">
          <rect x="78.8" y="21.4" width="5.8" height="9.2"/>
        </g>
        <g class="cls-18">
          <rect x="92.5" y="21.4" width="5.8" height="9.2"/>
        </g>
        <g class="cls-15">
          <rect x="105.2" y="21.4" width="5.8" height="9.2"/>
        </g>
        <g class="cls-12">
          <line class="cls-3" x1="102.7" y1="6.1" x2="87.1" y2="6.1"/>
        </g>
        <g class="cls-16">
          <line class="cls-3" x1="95.4" y1="14.4" x2="95.4" y2="4.7"/>
        </g>
        <g class="cls-13">
          <g class="cls-22">
            <line class="cls-3" x1="68.8" y1="42.6" x2="42.9" y2="16.7"/>
          </g>
        </g>
        <g class="cls-23">
          <line class="cls-3" x1="68.8" y1="22.6" x2="48.7" y2="22.6"/>
        </g>
        <g class="cls-24">
          <line class="cls-3" x1="49.1" y1="51.1" x2="49.1" y2="21.8"/>
        </g>
        <g class="cls-25">
          <path d="M48.8,53.1c1.6,0,3.1,0,3.8.3,1.4.5,2.5,1.6,3,3,.2.5.3,1.1.3,1.7s-.1,1.1-.3,1.7c-.5,1.4-1.6,2.5-3,3-.7.3-2.2.3-3.8.3s-3.1,0-3.8-.3c-1.4-.5-2.5-1.6-3-3-.2-.5-.3-1.1-.3-1.7s.1-1.1.3-1.7c.5-1.4,1.6-2.5,3-3,.7-.3,2.2-.3,3.8-.3Z"/>
          <path class="cls-3" d="M48.8,53.1c1.6,0,3.1,0,3.8.3,1.4.5,2.5,1.6,3,3,.2.5.3,1.1.3,1.7s-.1,1.1-.3,1.7c-.5,1.4-1.6,2.5-3,3-.7.3-2.2.3-3.8.3s-3.1,0-3.8-.3c-1.4-.5-2.5-1.6-3-3-.2-.5-.3-1.1-.3-1.7s.1-1.1.3-1.7c.5-1.4,1.6-2.5,3-3,.7-.3,2.2-.3,3.8-.3Z"/>
        </g>
      </g>
      <rect class="cls-1" x="-110.6" y="-484.7" width="1024" height="768"/>
    </g>
  </g>
</svg>
